<?xml version="1.0" encoding="UTF-8"?>
<svg id="_本文" data-name="本文" xmlns="http://www.w3.org/2000/svg" viewBox="0 0 779.03 366.64">
  <defs>
    <style>
      .cls-1 {
        fill: #0a00ff;
      }
    </style>
  </defs>
  <path class="cls-1" d="M243.7,183.32h-26.31c50.62,0,98.89-41.04,107.82-91.66h0C334.14,41.04,300.33,0,249.71,0H64.65l-32.32,183.32L0,366.64h211.38c50.62,0,98.89-41.04,107.82-91.66h0c8.93-50.62-24.87-91.66-75.5-91.66Z"/>
  <g>
    <path class="cls-1" d="M741.97,2.57h-162.48l-16.55,14.07h-162.64l-8.88,50.34h384.19l3.42-19.41c-14.48-17.57-22.59-27.43-37.07-45Z"/>
    <polygon class="cls-1" points="538.51 78.15 526.35 100.67 620.61 100.67 632.77 78.15 538.51 78.15"/>
    <path class="cls-1" d="M693.73,111.85h-264.74c-16.08,13.67-25.09,21.33-41.17,35l-5.19,29.41-22.21,125.97-11.36,64.41h273.95c6.46-5.49,10.08-8.57,16.55-14.07h75.21l8.88-50.34,22.21-125.97.16-.92c-20.42-24.79-31.87-38.69-52.29-63.48ZM459.05,302.23h-12.66l22.21-125.97h109.96l-8.95,50.78h-28.64l6.85-38.83h-68.66l-20.1,114.02ZM637.68,302.23h-109.96l7.19-40.78h28.64l-5.08,28.82h68.66l20.1-114.02h12.66l-22.21,125.97Z"/>
  </g>
</svg>