<?xml version="1.0" encoding="UTF-8"?>
<svg id="_レイヤー_1" data-name="レイヤー 1" xmlns="http://www.w3.org/2000/svg" viewBox="0 0 366.442 151.371">
  <defs>
    <style>
      .cls-1 {
        fill: none;
        stroke: #252628;
        stroke-linecap: round;
        stroke-linejoin: round;
        stroke-width: 5px;
      }
    </style>
  </defs>
  <path class="cls-1" d="M87.404,53.084c-1.517,1.096-3.083,2.244-3.993,3.88s-.964,3.907.386,5.203c1.349,1.294,3.48,1.173,5.328.899,8.953-1.331,17.659-4.31,25.551-8.744"/>
  <path class="cls-1" d="M111.339,27.67c-10.849,34.744-20.122,69.981-27.781,105.565"/>
  <path class="cls-1" d="M94.311,71.653c-8.625,12.973-17.999,25.448-28.06,37.341-.359.424-.731.858-1.225,1.112-1.641.844-3.623-.816-3.99-2.624-.529-2.61,1.369-5.465,3.98-5.988,2.487-.498,4.907.88,7.321,1.657,6.869,2.212,14.323-.459,20.729-3.78,14.588-7.563,27.102-18.553,38.853-30.038"/>
  <path class="cls-1" d="M142.306,25.235c-5.238,1.844-10.073,4.823-14.075,8.672-1.271,1.222-2.551,2.852-2.139,4.566.251,1.044,1.114,1.861,2.095,2.298s2.074.546,3.146.592c4.155.178,8.299-.505,12.366-1.377,5.944-1.275,11.791-2.956,17.633-4.636,7.768-2.233,15.693-4.54,22.327-9.156"/>
  <path class="cls-1" d="M145.44,40.696c-5.391,10.742-6.062,23.751-1.805,34.99"/>
  <path class="cls-1" d="M162.892,37.049c2.79,5.736,3.851,12.3,3.01,18.624-.841,6.323-3.58,12.382-7.772,17.19"/>
  <path class="cls-1" d="M119.275,72.062c1.25-4.255,4.724-7.469,8.333-10.046,12.154-8.676,27.65-12.536,42.453-10.575,3.226.427,6.471,1.14,9.311,2.728s5.255,4.154,6.073,7.303c1.12,4.312-1.024,9.047-4.554,11.765s-8.189,3.635-12.637,3.39"/>
  <path class="cls-1" d="M138.534,106.263c1.985,4.013,3.108,8.451,3.27,12.925.095,2.631-.19,5.42-1.725,7.559-1.512,2.107-4.056,3.285-6.617,3.696s-5.176.143-7.756-.126"/>
  <path class="cls-1" d="M124.538,111.137c-8.074,3.362-14.878,9.679-18.831,17.481"/>
  <path class="cls-1" d="M154.097,109.669c7.695,5.64,14.127,12.993,18.694,21.37"/>
  <path class="cls-1" d="M200.756,31.862c-4.551,2.675-8.417,6.503-11.136,11.027-.819,1.362-1.557,2.969-1.105,4.494.637,2.15,3.219,2.973,5.444,3.248,5.129.636,10.328.132,15.45-.554,23.182-3.107,45.713-9.935,67.709-17.888"/>
  <path class="cls-1" d="M233.856,17.434c5.465,19.905,3.819,41.077.295,61.416-1.768,10.205-4.017,20.394-7.992,29.958-3.974,9.564-9.763,18.531-17.745,25.131"/>
  <path class="cls-1" d="M196.633,104.383c5.519-4.473,12.601-6.507,19.577-7.853,16.482-3.181,33.588-3.1,50.039.237"/>
  <path class="cls-1" d="M243.462,59.914c6.805,10.219,16.093,18.772,26.836,24.714s22.924,9.265,35.196,9.601"/>
  <path class="cls-1" d="M157.224,82.294c-12.571,1.263-24.926,4.641-36.391,9.95-2.749,1.273-5.584,2.763-6.286,6.317.183,4.259,3.901,4.679,6.959,4.707,19.422.177,39.097-1.746,57.334-8.43,18.237-6.684,35.023-18.451,45.314-34.923"/>
</svg>