<?xml version="1.0" encoding="UTF-8"?>
<svg id="_レイヤー_1" xmlns="http://www.w3.org/2000/svg" version="1.1" viewBox="0 0 366.44 151.37">
  <!-- Generator: Adobe Illustrator 30.3.0, SVG Export Plug-In . SVG Version: 2.1.3 Build 182)  -->
  <defs>
    <style>
      .st0 {
        fill: none;
        stroke: #252628;
        stroke-linecap: round;
        stroke-linejoin: round;
        stroke-width: 5px;
      }
    </style>
  </defs>
  <path class="st0" d="M87.4,53.08c-1.52,1.1-3.08,2.24-3.99,3.88s-.96,3.91.39,5.2c1.35,1.29,3.48,1.17,5.33.9,8.95-1.33,17.66-4.31,25.55-8.74"/>
  <path class="st0" d="M111.34,27.67c-10.85,34.74-20.12,69.98-27.78,105.57"/>
  <path class="st0" d="M94.31,71.65c-8.62,12.97-18,25.45-28.06,37.34-.36.42-.73.86-1.22,1.11-1.64.84-3.62-.82-3.99-2.62-.53-2.61,1.37-5.47,3.98-5.99,2.49-.5,4.91.88,7.32,1.66,6.87,2.21,14.32-.46,20.73-3.78,14.59-7.56,27.1-18.55,38.85-30.04"/>
  <path class="st0" d="M142.31,25.24c-5.24,1.84-10.07,4.82-14.07,8.67-1.27,1.22-2.55,2.85-2.14,4.57.25,1.04,1.11,1.86,2.09,2.3.98.44,2.07.55,3.15.59,4.15.18,8.3-.51,12.37-1.38,5.94-1.28,11.79-2.96,17.63-4.64,7.77-2.23,15.69-4.54,22.33-9.16"/>
  <path class="st0" d="M145.44,40.7c-5.39,10.74-6.06,23.75-1.8,34.99"/>
  <path class="st0" d="M162.89,37.05c2.79,5.74,3.85,12.3,3.01,18.62-.84,6.32-3.58,12.38-7.77,17.19"/>
  <path class="st0" d="M119.28,72.06c1.25-4.25,4.72-7.47,8.33-10.05,12.15-8.68,27.65-12.54,42.45-10.58,3.23.43,6.47,1.14,9.31,2.73s5.26,4.15,6.07,7.3c1.12,4.31-1.02,9.05-4.55,11.76s-8.19,3.64-12.64,3.39"/>
  <path class="st0" d="M138.53,106.26c1.99,4.01,3.11,8.45,3.27,12.93.1,2.63-.19,5.42-1.73,7.56-1.51,2.11-4.06,3.28-6.62,3.7s-5.18.14-7.76-.13"/>
  <path class="st0" d="M124.54,111.14c-8.07,3.36-14.88,9.68-18.83,17.48"/>
  <path class="st0" d="M154.1,109.67c7.7,5.64,14.13,12.99,18.69,21.37"/>
  <path class="st0" d="M200.76,31.86c-4.55,2.67-8.42,6.5-11.14,11.03-.82,1.36-1.56,2.97-1.1,4.49.64,2.15,3.22,2.97,5.44,3.25,5.13.64,10.33.13,15.45-.55,23.18-3.11,45.71-9.94,67.71-17.89"/>
  <path class="st0" d="M233.86,17.43c5.46,19.91,3.82,41.08.29,61.42-1.77,10.21-4.02,20.39-7.99,29.96-3.97,9.56-9.76,18.53-17.74,25.13"/>
  <path class="st0" d="M196.63,104.38c5.52-4.47,12.6-6.51,19.58-7.85,16.48-3.18,33.59-3.1,50.04.24"/>
  <path class="st0" d="M243.46,59.91c6.8,10.22,16.09,18.77,26.84,24.71s22.92,9.26,35.2,9.6"/>
  <path class="st0" d="M157.22,82.29c-12.57,1.26-24.93,4.64-36.39,9.95-2.75,1.27-5.58,2.76-6.29,6.32.18,4.26,3.9,4.68,6.96,4.71,19.42.18,39.1-1.75,57.33-8.43s35.02-18.45,45.31-34.92"/>
</svg>